<?xml version="1.0" encoding="utf-8" ?>
<svg xmlns="http://www.w3.org/2000/svg" xmlns:xlink="http://www.w3.org/1999/xlink" width="423" height="538">
	<clipPath id="cl_3">
		<rect x="6.1035156e-05" y="1.5258789e-05" width="422.7384" height="537.62207"/>
	</clipPath>
	<g clip-path="url(#cl_3)">
		<path fill="#091B22" transform="translate(-305.091 -253.397)" d="M471.816 416.709C471.612 413.978 463.614 397.625 461.987 392.556C459.257 384.051 458.26 375.328 455.786 366.854C454.887 363.774 453.011 361.049 452.123 357.964C451.395 355.433 451.861 352.813 450.911 350.289C450.528 349.27 450.26 348.422 450.075 347.35C450.237 346.979 450.394 346.606 450.545 346.23C451.924 342.792 449.282 342.583 448.583 339.745C447.902 336.981 450.529 332.414 451.315 329.708C454.445 318.939 455.825 308.813 463.095 299.649C468.494 292.842 483.988 287.058 492.535 286.216C507.72 284.72 528.642 289.395 540.427 299.328C549.166 306.693 555.256 313.999 556.308 325.704L559.629 328.864C560.175 331.733 560.998 334.548 561.335 337.453C562.07 343.789 562.342 361.556 561.573 367.578C561.39 369.683 561.03 371.489 560.37 373.497C558.225 378.522 554.35 384.944 556.409 390.565C557.562 393.712 561.923 396.443 564.372 398.527C566.824 400.613 569.005 402.984 571.515 405.009C578.561 410.696 591.195 418.911 599.535 422.293C610.673 426.811 622.634 429.955 633.986 434.027C641.229 436.626 648.068 440.199 655.261 442.783C661.042 444.859 666.849 443.819 671.558 448.589C677.333 454.437 683.217 470.117 686.767 478.091C687.022 478.665 687.241 479.249 687.462 479.836C677.903 493.826 626.821 503.117 609.928 506.283C597.901 508.537 585.716 510.16 573.607 511.923C558.478 514.125 542.847 516.519 527.559 517.119C530.335 504.624 533.794 492.271 537.245 479.949C539.005 473.661 540.478 466.989 542.903 460.924C539.822 462.639 534.962 466.197 531.304 465.236C529.958 464.882 528.7 464.343 527.281 464.358C519.137 464.444 504.243 472.547 496.215 475.716C493.971 476.602 490.981 477.972 488.544 478.024C486.734 478.062 484.518 477.186 482.882 476.436C478.406 469.679 474.319 461.125 466.718 457.534C463.188 455.866 459.32 454.767 455.69 453.289C461.544 453.393 468.972 454.81 474.227 457.443C476.931 460.994 483.177 475.414 487.298 476.05C488.473 476.232 489.672 475.737 490.507 474.942C491.349 474.14 491.454 473.062 491.354 471.95C491.094 469.064 479.939 452.027 477.427 450.296C472.108 446.632 461.19 446.025 454.743 444.298C461.5 443.914 473.3 442.14 478.681 447.027C483.081 451.023 486.431 464.237 492.676 464.457C494.943 463.265 495.503 461.284 496.429 459.028C490.484 450.209 484.541 437.798 472.991 435.566C469.637 434.918 463.876 436.989 462.287 436.385C461.459 434.625 462.371 431.828 463.004 430.094C463.584 428.505 464.62 427.092 465.582 425.713C469.508 425.736 473.593 424.631 477.444 423.881L482.541 426.837C482.738 426.711 482.933 426.581 483.133 426.459C486.986 424.112 491.985 424.765 494.728 421.154C494.872 420.022 494.828 420.083 494.158 419.145C488.511 416.158 478.447 416.231 472.471 418.076L471.969 418.235L471.816 416.709ZM484.532 358.341C481.007 366.117 481.743 374.387 479.941 382.615C481.974 383.433 483.97 384.264 486.087 384.846C491.065 383.248 496.544 381.649 501.648 384.04C502.308 384.349 502.352 384.424 502.838 384.821L502.969 385.348L502.482 384.527L502.794 384.786C502.105 386.513 501.736 386.85 500.041 387.664C498.095 388.6 495.655 388.994 493.549 389.451C493.433 392.456 493.401 395.492 493.169 398.488L486.281 398.866C485.333 399.819 484.31 400.445 484.073 401.793C486.705 402.147 490.345 401.327 492.504 399.765C492.994 399.41 493.118 399.29 493.539 398.928C498.093 398.948 502.167 399.23 506.587 400.409C506.792 400.402 506.998 400.412 507.202 400.387C508.317 400.244 509.084 399.682 510.002 399.087C512.534 398.941 514.983 399.925 516.892 401.575C518.055 402.581 518.762 403.473 519.133 404.992L518.522 405.559C516.026 405.143 514.001 402.809 511.685 402.631C508.929 402.419 507.315 404.598 504.061 404.076C499.882 404.204 490.239 406.241 487.095 409.248C486.69 409.636 486.676 409.741 486.463 410.179C486.719 410.844 486.635 411.179 487.38 411.444C492.207 413.16 499.08 408.617 504.165 409.055L504.41 409.734L503.02 411.282L503.127 411.796L506.547 412.349C508.011 412.43 509.28 412.393 510.571 413.185L510.423 413.939C508.346 415.177 506.003 416.044 504.037 417.421C502.557 419.957 498.851 421.348 497.083 424.064C496.963 425.455 496.937 425.462 497.718 426.613C501.039 428.549 504.854 427.92 508.472 427.207C518.63 425.206 522.809 419.294 528.213 411.336C529.785 410.603 531.374 410.089 533.028 409.569L533.562 409.936C533.303 411.13 533.055 412.326 532.818 413.524L533.442 414.141C538.238 412.911 543.816 404.095 547.235 400.37C546.26 411.534 541.735 417.429 534.038 425.281C534.691 424.9 535.308 424.531 535.922 424.09C543.64 418.548 554.008 409.648 555.24 399.602C555.494 397.53 555.559 393.238 554.041 391.604C553.547 391.072 552.662 391.364 551.995 391.395C549.53 389.132 549.522 379.922 549.24 376.479C549.852 376.989 549.916 377.06 550.63 377.562C551.951 378.491 553.63 379.167 555.244 378.604C557.438 377.838 558.421 375.37 559.387 373.47C559.563 372.137 559.896 369.408 559.291 368.244C558.721 369.24 558.264 369.959 557.395 370.716C556.391 368.49 559.981 363.444 559.472 359.898L559.212 359.925C558.917 358.301 558.359 356.67 557.915 355.079C557.173 353.673 557.127 353.36 555.747 352.628C553.941 352.648 552.247 352.92 550.469 353.219C551.77 350.252 552.71 347.062 556.036 345.845C556.649 345.621 557.282 345.486 557.916 345.341L557.914 344.479C556.82 343.486 555.729 343.004 554.243 343.109C552.602 343.226 551.159 344.072 550.134 345.341C548.272 347.645 544.958 352.795 545.389 355.705C545.454 356.129 545.523 356.552 545.596 356.974L545.106 357.747C543.755 357.368 543.316 356.512 542.604 355.358C539.253 349.921 537.45 344.009 533.178 339.06C532.275 338.014 528.692 335.695 528.497 334.675C529.905 334.282 530.664 334.299 531.609 333.15L531.106 330.646L531.503 330.237C535.78 331 539.612 334.79 543.886 331.235C544.714 330.546 545.073 330.328 545.146 329.273C543.912 329.182 542.951 329.38 541.75 329.616C538.242 330.305 535.891 329.41 532.622 328.289C535.931 326.018 539.725 324.399 542.81 321.86C538.178 321.898 533.675 321.59 529.116 320.733C532.3 318.444 539.65 314.686 540.959 311.136C539.629 309.825 538.834 309.681 536.936 309.586C534.52 309.466 531.73 310.12 529.321 310.482C532.061 309.006 534.693 307.608 537.109 305.624C527.454 307.393 519.962 309.165 510.756 304.241C517.218 305.27 523.484 305.263 529.207 301.606L529.162 300.979C524.07 299.871 511.343 303.461 507.289 298.574C507.202 298.469 507.148 298.342 507.077 298.226C509.324 296.664 512.968 298.352 515.49 297.055L515.229 296.469C509.069 295.118 503.289 295.389 497.177 296.853C497.825 295.907 500 293.376 499.829 292.381C498.171 292.102 496.721 293.089 495.269 293.79L494.635 293.329L494.349 290.462C493.435 290.026 493.822 289.996 492.949 290.322C491.046 291.031 490.009 293.084 488.015 293.33C487.515 292.61 487.112 291.954 486.764 291.149C484.741 292.173 484.172 295.625 482.212 295.808C481.068 295.314 480.445 295.071 479.25 295.648C478.292 296.112 477.376 296.811 476.499 297.413L476.422 295.535L475.869 295.057C474.054 295.592 470.945 297.91 470.065 299.665C469.773 300.249 469.801 300.315 469.725 300.871C472.22 303.667 477.287 300.676 477.218 306.444C474.629 308.937 470.954 309.858 468.021 311.86C460.606 316.923 456.445 329.422 456.321 338.006C456.231 344.173 457.314 350.403 458.479 356.438C468.61 349.127 470.359 354.175 477.018 351.554C479.373 352.216 482.728 356.516 484.532 358.341ZM556.309 356.877C557.626 358.419 557.944 359.89 558.434 361.829C557.905 362.708 557.569 363.373 556.611 363.86C555.534 364.407 554.264 364.489 553.146 364.02C551.522 363.338 550.632 362.12 550.105 360.492C550.25 359.306 550.212 358.615 551.245 357.811C552.626 356.734 554.664 356.888 556.309 356.877ZM525.5 444.494C527.625 443.806 530.301 439.327 532.017 437.616C537.341 432.306 543.4 427.73 548.599 422.311C551.262 419.534 554.569 415.999 556.365 412.575C558.217 409.045 557.881 404.876 556.94 401.158C554.745 406.971 552.222 411.679 548.125 416.377C541.596 423.863 528.961 431.232 524.054 437.787C523.245 438.867 522.889 439.644 523.342 440.992C523.723 442.129 524.803 443.507 525.5 444.494ZM468.891 387.692C470.155 388.486 471.931 389.95 473.431 389.852C476.95 386.489 480.124 376.941 480.385 372.152C480.419 371.525 480.384 370.937 479.938 370.448C478.184 372.752 476.434 375.399 474.22 377.267C472.119 379.038 466.733 380.935 465.597 382.997C465.985 384.931 467.48 386.391 468.891 387.692ZM540.981 453.999L543.468 459.436C545.275 454.329 549.843 443.862 550.394 439.104C545.532 441.903 540.434 444.363 535.622 447.217C537.794 449.225 539.558 451.4 540.981 453.999ZM496.697 454.902C498.788 453.288 500.614 451.657 502.446 449.755C501.517 451.461 500.56 453.072 499.499 454.696C499.108 455.296 499.241 455.078 499.055 455.898C499.58 455.879 500.162 455.908 500.675 455.804C503.226 454.943 505.841 454.159 508.335 453.153C506.253 451.143 504.159 448.738 501.458 447.604C501.242 447.513 501.03 447.413 500.811 447.327C497.386 445.974 493.633 446.386 490.132 445.483C491.911 448.467 493.556 451.521 495.928 454.082C496.087 454.254 496.242 454.43 496.402 454.6C496.498 454.703 496.599 454.801 496.697 454.902ZM562.066 467.68C561.057 471.372 560.465 475.042 560.11 478.852C567.426 481.08 573.764 482.969 577.752 490.118C579.607 493.444 580.637 497.171 581.454 500.869C583.118 498.978 584.692 497.117 586.121 495.035C588.249 491.648 590.616 488.268 592.414 484.697C586.236 481.806 579.907 479.344 574.02 475.86C569.834 473.381 566.144 470.27 562.066 467.68Z"/>
		<path fill="#091B22" transform="translate(-305.091 -253.397)" d="M504.926 367.991C502.763 367.314 500.544 366.66 498.69 365.308C497.422 364.383 496.079 362.54 494.494 362.324C493.45 362.182 492.765 361.96 491.773 361.609C489.692 359.444 486.191 355.706 486.243 352.462C486.265 351.073 486.683 349.962 487.643 348.959C491.784 344.63 500.353 343.249 506.096 343.407C510.196 343.52 520.319 344.752 522.81 348.188C523.367 348.956 523.823 349.958 523.491 350.915C523.396 351.187 523.226 351.427 523.094 351.683L523.806 352.219C524.805 352.874 525.407 353.142 525.971 354.243L525.55 354.859C524.287 354.865 523.036 354.852 521.773 354.803C521.244 356.143 521.165 357.253 519.862 357.958C514.746 356.753 512.061 348.554 504.269 352.851C503.261 353.406 502.496 353.944 502.138 355.057C510.124 354.608 507.861 351.074 516.826 356.846C511.912 360.003 509.544 361.857 503.578 362.53L504.428 364.026C504.182 365.595 504.446 366.531 504.926 367.991Z"/>
		<path fill="#ECE8EC" fill-opacity="0.015686275" transform="translate(-305.091 -253.397)" d="M523.806 352.219C524.707 351.685 525.099 351.263 526.189 351.622C527.539 352.067 527.834 352.465 528.521 353.604C528.271 355.235 527.633 356.282 526.272 357.266C523.912 358.973 517.052 357.559 516.452 360.925C516.271 361.94 516.426 363.231 516.451 364.271L516.152 364.519L515.824 363.764C512.466 362.956 508.254 364.692 504.428 364.026L503.578 362.53C509.544 361.857 511.912 360.003 516.826 356.846C507.861 351.074 510.124 354.608 502.138 355.057C502.496 353.944 503.261 353.406 504.269 352.851C512.061 348.554 514.746 356.753 519.862 357.958C521.165 357.253 521.244 356.143 521.773 354.803C523.036 354.852 524.287 354.865 525.55 354.859L525.971 354.243C525.407 353.142 524.805 352.874 523.806 352.219Z"/>
		<path fill="#010305" transform="translate(-305.091 -253.397)" d="M501.735 377.647C505.138 378.432 509.605 380.84 512.464 382.896C516.072 385.492 518.113 387.764 518.866 392.189C517.891 391.827 516.935 391.417 516.001 390.96C510.29 388.176 503.858 383.853 501.735 377.647Z"/>
		<path fill="#010305" transform="translate(-305.091 -253.397)" d="M504.428 364.026C508.254 364.692 512.466 362.956 515.824 363.764C513.634 366.252 511.54 367.604 508.16 367.861C507.369 367.921 506.581 367.925 505.789 367.953L504.926 367.991C504.446 366.531 504.182 365.595 504.428 364.026Z"/>
		<path fill="#010305" transform="translate(-305.091 -253.397)" d="M558.434 361.829C557.905 362.708 557.569 363.373 556.611 363.86C555.534 364.407 554.264 364.489 553.146 364.02C551.522 363.338 550.632 362.12 550.105 360.492C550.25 359.306 550.212 358.615 551.245 357.811C552.626 356.734 554.664 356.888 556.309 356.877C557.626 358.419 557.944 359.89 558.434 361.829Z"/>
		<path fill="#ECE8EC" fill-opacity="0.011764706" transform="translate(-305.091 -253.397)" d="M556.309 356.877C556.429 356.169 556.575 355.485 556.737 354.785L557.915 355.079C558.359 356.67 558.917 358.301 559.212 359.925L558.434 361.829C557.944 359.89 557.626 358.419 556.309 356.877Z"/>
		<path fill="#010305" transform="translate(-305.091 -253.397)" d="M506.587 400.409C506.792 400.402 506.998 400.412 507.202 400.387C508.317 400.244 509.084 399.682 510.002 399.087C512.534 398.941 514.983 399.925 516.892 401.575C518.055 402.581 518.762 403.473 519.133 404.992L518.522 405.559C516.026 405.143 514.001 402.809 511.685 402.631C508.929 402.419 507.315 404.598 504.061 404.076L503.164 403.308C503.423 401.861 503.575 401.659 504.539 400.536L506.587 400.409Z"/>
		<path fill="#010305" transform="translate(-305.091 -253.397)" d="M559.472 359.898L560.334 358.969L561.024 359.194C561.967 361.691 561.239 364.906 561.573 367.578C561.39 369.683 561.03 371.489 560.37 373.497L559.387 373.47C559.563 372.137 559.896 369.408 559.291 368.244C558.721 369.24 558.264 369.959 557.395 370.716C556.391 368.49 559.981 363.444 559.472 359.898Z"/>
		<path fill="#010305" transform="translate(-305.091 -253.397)" d="M506.547 412.349C508.011 412.43 509.28 412.393 510.571 413.185L510.423 413.939C508.346 415.177 506.003 416.044 504.037 417.421C503.889 415.871 503.114 414.074 503.899 412.739L506.547 412.349Z"/>
		<path fill="#091B22" transform="translate(-305.091 -253.397)" d="M629.893 588.563C660.078 584.375 687.934 605.475 692.077 635.667C696.219 665.859 675.076 693.682 644.878 697.778C614.745 701.866 586.995 680.778 582.862 650.652C578.728 620.526 599.773 592.743 629.893 588.563ZM638.865 686.015C641.297 685.385 643.053 684.551 645.161 683.209C646.41 680.967 647.486 678.849 648.151 676.354C652.081 661.594 652.514 626.245 648.419 611.682C647.46 608.271 645.81 605.092 642.665 603.215C640.512 601.931 638.114 601.654 635.661 601.589C631.601 602.977 628.806 604.476 626.917 608.546C621.411 620.403 622.22 665.664 626.922 677.755C628.149 680.913 630.176 683.977 633.477 685.223C635.247 685.89 636.993 686.025 638.865 686.015Z"/>
		<path fill="#091B22" transform="translate(-305.091 -253.397)" d="M430.05 543.001C441.862 543.066 453.582 543.191 465.373 542.334C465.115 544.99 465.827 547.969 463.92 550.11C462.89 550.403 461.783 550.69 460.835 551.198C455.045 554.297 441.252 601.456 438.254 610.637L423.519 655.149C419.184 668.409 415.133 681.8 410.219 694.858C404.365 694.899 398.51 694.862 392.657 694.747C380.819 663.544 370.007 631.807 359.152 600.242L349.539 572.299C347.501 566.412 345.676 559.946 342.713 554.472C340.912 551.144 337.882 550.491 334.504 549.575L334.159 542.719C342.204 543.407 350.456 543.089 358.529 543.085C369.918 543.079 381.351 543.202 392.733 542.784C394.717 542.584 396.729 542.169 398.5 543.186C399.269 544.916 398.617 547.142 398.343 548.96C395.519 550.23 391.951 551.583 390.52 554.543C389.801 556.028 389.772 557.4 390.06 558.995C391.839 568.853 396.032 579.041 399.124 588.602C404.514 605.271 409.632 622.114 415.565 638.592C420.311 624.04 424.289 609.204 428.809 594.573C432.216 583.544 436.466 572.386 439.167 561.196C439.601 559.397 440.32 557.004 439.568 555.223C438.122 551.8 433.232 550.363 430.065 549.141L430.05 543.001Z"/>
		<path fill="#091B22" transform="translate(-305.091 -253.397)" d="M552.981 551.54C556.735 551.478 560.492 551.49 564.246 551.471L564.108 589.859C570.266 589.745 576.417 589.572 582.572 589.871C582.594 593.629 582.507 597.392 582.466 601.15C576.329 601.478 570.142 601.218 563.985 601.498L563.848 648.062C563.852 656.388 563.345 665.03 564.057 673.309C564.21 675.081 564.313 677.644 565.536 679.042C571.652 686.04 576.972 677.348 581.984 677.625L582.713 678.444C583.317 681.109 582.997 683.729 581.673 686.14C578.822 691.332 573.207 693.75 567.782 695.259C564.535 695.857 561.344 696.208 558.043 696.338C549.606 696.668 539.523 696.004 533.136 689.803C529.679 686.447 527.55 682.012 526.552 677.338C524.814 669.195 525.914 659.687 525.916 651.341L525.885 601.465C522.482 601.028 519.034 601.137 515.61 601.137C515.799 597.552 515.543 593.848 515.472 590.252C519.188 589.344 522.733 588.362 526.192 586.701C540.916 579.631 547.915 566.277 552.981 551.54Z"/>
		<path fill="#091B22" transform="translate(-305.091 -253.397)" d="M504.361 589.022C504.909 589.491 504.924 590.039 505.017 590.762C505.711 596.16 504.995 602.52 505.016 608.055L505.068 654.724C505.069 661.365 503.918 677.924 506.534 683.264C508.083 686.424 510.715 687.005 513.816 687.991C514.056 690.119 513.988 692.374 514.063 694.521L457.642 694.536L457.579 687.676C459.568 687.091 461.565 686.514 463.259 685.27C465.473 683.642 466.242 681.72 466.617 679.066C468.061 668.856 467.139 657.639 467.124 647.323C467.111 637.951 467.853 627.85 466.707 618.565C466.511 616.978 466.362 615.557 465.337 614.282C463.416 611.89 460.168 611.564 457.346 611.155L457.172 603.578C473.047 600.076 489.428 595.456 504.361 589.022Z"/>
		<path fill="#091B22" transform="translate(-305.091 -253.397)" d="M452.658 430.658L454.155 431.782C451.047 434.082 442.434 443.413 441.83 447.133C441.728 447.761 441.721 448.393 441.673 449.025C441.418 452.416 439.044 456.296 437.8 459.507C435.776 464.734 424.431 493.416 424.509 496.484C424.567 498.789 425.804 500.893 427.207 502.642C428.207 503.891 429.353 505.057 430.448 506.223C432.567 503.023 434.494 500.142 437.645 497.843C441.34 498.547 444.035 499.082 447.376 496.89C449.678 495.38 452.046 493.519 452.504 490.635C453.038 487.277 451.13 483.077 450.756 479.63C449.137 479.009 445.922 480.248 445.16 478.498C444.681 477.397 444.791 476.149 445.396 475.108C446.746 472.79 450.2 472.692 451.192 470.591C450.077 468.075 446.829 467.933 445.63 465.739L446.314 465.136C448.611 465.954 450.721 468.678 453.01 468.896L453.691 468.564L451.151 462.133C457.278 463.35 465.243 463.506 469.205 468.983C469.29 469.1 469.366 469.224 469.446 469.344C471.808 471.423 473.15 474.705 474.946 477.267C475.91 478.644 476.861 479.552 478.565 479.815C480.184 479.529 481.044 478.854 482.338 477.857L482.839 477.465C482.908 477.949 482.966 478.115 482.847 478.656C482.223 481.497 477.458 490.976 476.011 494.391C472.291 503.175 468.966 512.126 465.507 521.015L439.215 521.199C440.306 519.183 441.235 517.057 442.221 514.987C439.452 515.477 436.736 516.196 434.063 514.928C428.97 512.513 425.48 506.64 423.871 501.38C421.982 495.205 423.26 490.614 426.212 485.185C422.183 487.406 418.853 489.483 417.404 494.159C414.727 502.803 420.475 513.795 424.296 521.226C407.773 521.725 391.162 521.038 374.616 521.378C381.005 514.028 392.024 505.669 393.229 495.722C393.873 490.41 394.16 484.945 396.039 479.879C402.117 463.484 423.949 456.978 438.283 450.09C438.53 449.39 438.799 448.702 439.052 448.004C441.257 441.936 447.608 434.668 452.658 430.658ZM462.725 490.152C467.045 487.619 470.17 484.303 473.582 480.684C472.007 477.631 470.336 473.952 467.735 471.656L467.064 471.533L466.439 471.75C464.397 472.438 462.922 472.617 460.802 472.66C460.309 472.67 459.816 472.7 459.324 472.721C459.121 475.387 458.261 490.064 459.255 491.36C460.471 491.017 461.575 490.689 462.725 490.152Z"/>
		<path fill="#010305" transform="translate(-305.091 -253.397)" d="M451.151 462.133C457.278 463.35 465.243 463.506 469.205 468.983C469.29 469.1 469.366 469.224 469.446 469.344L468.231 469.278C466.281 467.669 462.001 464.144 459.445 464.422C456.61 464.73 455.374 466.483 453.691 468.564L451.151 462.133Z"/>
		<path fill="#091B22" transform="translate(-305.091 -253.397)" d="M489.221 722.738C537.449 722.102 585.68 723.69 633.761 727.497C654.058 729.084 675.466 730.188 695.254 734.937L538.125 734.829L394.764 734.787C373.97 734.774 352.264 735.927 331.584 734.806C339.734 732.09 352.356 731.594 361.164 730.601C403.713 726.089 446.44 723.465 489.221 722.738Z"/>
		<path fill="#091B22" transform="translate(-305.091 -253.397)" d="M483.937 544.205C495.046 542.533 505.421 550.145 507.159 561.243C508.897 572.342 501.347 582.762 490.258 584.565C479.077 586.384 468.551 578.756 466.798 567.564C465.046 556.373 472.735 545.892 483.937 544.205Z"/>
		<path fill="#091B22" transform="translate(-305.091 -253.397)" d="M490.998 499.458C492.092 499.807 491.857 499.768 492.39 500.67C490.925 505.359 478.328 515.841 474.703 520.782C472.959 520.659 471.136 520.868 469.388 520.968C471.947 514.006 474.645 507.096 477.481 500.243L481.412 504.097C484.564 502.388 487.669 500.796 490.998 499.458Z"/>
		<path fill="#010305" fill-opacity="0.98431373" transform="translate(-305.091 -253.397)" d="M452.658 430.658C454.729 428.639 456.328 426.247 458.134 424.005C461.697 419.581 466.684 418.425 471.816 416.709L471.969 418.235C465.441 420.229 461.855 420.994 457.966 427.024C456.804 428.826 455.795 430.35 454.155 431.782L452.658 430.658Z"/>
	</g>
</svg>
