<?xml version="1.0" encoding="UTF-8"?>
<svg id="Layer_2" data-name="Layer 2" xmlns="http://www.w3.org/2000/svg" viewBox="0 0 445.76 537.62">
  <defs>
    <style>
      .cls-1 {
        fill: none;
      }

      .cls-2 {
        fill: #2a3539;
      }

      .cls-3 {
        fill: rgba(236, 232, 236, .01);
      }

      .cls-4 {
        fill: rgba(236, 232, 236, .02);
      }
    </style>
  </defs>
  <g id="Layer_1-2" data-name="Layer 1">
    <g>
      <path class="cls-2" d="M98.72,283.5c11.93-.2,23.86-.24,35.8-.14,9.13.03,18.33-.16,27.44.4-4.75,23.89-9.98,47.77-15.15,71.58-2.86,16.21-6.48,32.41-9.74,48.54-3.52,18.16-7.13,36.3-10.84,54.43l-6.8,32.24c-1.25,5.95-2.77,11.95-3.54,17.98-20.96-.8-42.24-.27-63.22-.04L7.23,283.45c2.84.12,5.64.24,8.48.02h.66c5.3-.07,51.89-.48,53.31.26.27.14.43.42.65.63.03,3.59-4.42,5.67-6.32,8.47-1.44,2.11-.81,6.47-.51,8.96,1.29,10.62,4.07,21.4,6.08,31.93,5.08,26.64,10.68,53.3,15.3,80.01,1.58-11,3.93-21.97,6.04-32.89l9.63-50.28c1.9-10.17,4.73-21.04,5.43-31.33.09-1.55-.05-3.11-.43-4.61-.93-3.78-3.68-5.06-6.8-6.85.07-1.43,0-2.85-.03-4.27Z"/>
      <path class="cls-2" d="M360.49,335.99c11.36-.24,22.75.02,34.12.01,9.17,0,19.54-1,28.52,1.01,4.97,1.12,9.16,3.06,12.91,6.59,7.45,7.01,9.26,15.06,9.48,25.01.54,24.97,0,50.06,0,75.05v24.61c0,4.89.38,10.09-.48,14.91-1.12,6.3-3.8,12.41-8.35,17-8.68,8.74-19.51,8.66-30.94,8.61h-34.01c-8.55-.02-18.02.8-26.39-1.16-5.09-1.19-9.61-3.51-13.43-7.1-7.03-6.61-8.44-14.22-8.63-23.42-.55-26.28,0-52.69.02-78.98,0-10.35-1.3-28.67.35-37.96,1.02-6,3.85-11.54,8.12-15.88,8.16-8.2,17.99-8.28,28.71-8.3ZM388.67,473.02c3.35-1.14,6.09-2.37,7.67-5.74.66-1.41.89-2.73.99-4.27.63-8.94.74-79.6-1.13-84.26-.9-2.24-3.45-4.2-5.64-5.05-3.51-1.36-7.08-1.03-10.74-.78-3.11,1.03-5.79,2.11-7.4,5.16-.87,1.65-1.06,3.51-1.18,5.34-.68,10.02-1.1,77.78.95,83.55.82,2.3,2.88,4.19,5.07,5.17,3.55,1.59,7.63,1.31,11.4.89Z"/>
      <path class="cls-2" d="M279.1,283.77l6.47-.05.03,53.51c10.76-.35,21.53-.19,32.29-.4-2.79,10.86-4.31,22.37-6.34,33.42-8.67-.13-17.35-.04-26.02-.06-.5,19.53-.21,39.16-.2,58.7,0,11.11-.74,22.84.27,33.89.25,2.71.78,5.6,1.99,8.05.74,1.5,2.44,2.35,3.98,2.79,6.79,1.98,15.99-1.4,21.98-4.56.07,8.9.02,17.8-.16,26.7-5.34,5.93-11.43,9.47-18.93,12.04-2.03.45-4.06.77-6.14.88-8.89.48-25.52,1.34-33.82-.72-3.96-.98-7.74-2.84-10.73-5.63-2.9-2.7-5.42-6.82-6.2-10.73-1.64-8.16-.53-27.36-.53-36.49.1-28.3.03-56.6-.22-84.9-4.43.17-8.86.31-13.29.42-.05-10.15-.02-20.3.09-30.45,1.75-.59,3.51-1.2,5.22-1.9,15.39-6.31,32.71-23.76,41.72-37.69,3.46-5.35,6.04-10.99,8.55-16.82Z"/>
      <path class="cls-2" d="M211.08,336.17c.28.07.6.05.85.2.53.32.4,16.19.4,18.75l-.05,95.68c0,10.21-1.34,38.19.95,46.33,1,3.55,5.72,5.62,7.64,8.73.6.97.52,1.15.25,2.17-7.38.65-15.03.24-22.44.21l-37.72-.06c-1.75.04-3.7.29-5.29-.53-.26-.84-.3-1.21-.16-2.11.39-2.47,3.24-2.54,4.92-3.87,1.9-1.51,3.21-4.9,3.52-7.25.79-6.06.27-12.78.25-18.9l-.1-34.79.07-43.63c.01-7.45.61-15.51-.39-22.89-.47-3.47-1.78-5.66-3.82-8.39-1.26-.31-3.07-.63-4.08-1.46-1.04-.85-1.14-1.45-1.3-2.66.49-1.11.54-1.64,1.62-2.26,5.41-3.07,12.35-5.07,18.12-7.49l36.77-15.77Z"/>
      <path class="cls-2" d="M184.7,282.93c13.52-2.73,26.68,6.06,29.35,19.59,2.67,13.53-6.18,26.65-19.72,29.26-13.46,2.59-26.49-6.18-29.14-19.63-2.65-13.45,6.07-26.51,19.51-29.22Z"/>
      <polyline class="cls-1" points="0 0 422.74 0 422.74 537.62"/>
      <path class="cls-2" d="M166.72,163.31c-.2-2.73-8.2-19.08-9.83-24.15-2.73-8.51-3.73-17.23-6.2-25.7-.9-3.08-2.78-5.8-3.66-8.89-.73-2.53-.26-5.15-1.21-7.67-.38-1.02-.65-1.87-.84-2.94.16-.37.32-.74.47-1.12,1.38-3.44-1.26-3.65-1.96-6.49-.68-2.76,1.95-7.33,2.73-10.04,3.13-10.77,4.51-20.9,11.78-30.06,5.4-6.81,20.89-12.59,29.44-13.43,15.18-1.5,36.11,3.18,47.89,13.11,8.74,7.36,14.83,14.67,15.88,26.38l3.32,3.16c.55,2.87,1.37,5.68,1.71,8.59.73,6.34,1.01,24.1.24,30.12-.18,2.11-.54,3.91-1.2,5.92-2.15,5.02-6.02,11.45-3.96,17.07,1.15,3.15,5.51,5.88,7.96,7.96,2.45,2.09,4.63,4.46,7.14,6.48,7.05,5.69,19.68,13.9,28.02,17.28,11.14,4.52,23.1,7.66,34.45,11.73,7.24,2.6,14.08,6.17,21.27,8.76,5.78,2.08,11.59,1.04,16.3,5.81,5.78,5.85,11.66,21.53,15.21,29.5.25.57.47,1.16.69,1.74-9.56,13.99-60.64,23.28-77.53,26.45-12.03,2.25-24.21,3.88-36.32,5.64-15.13,2.2-30.76,4.6-46.05,5.2,2.78-12.5,6.23-24.85,9.69-37.17,1.76-6.29,3.23-12.96,5.66-19.02-3.08,1.71-7.94,5.27-11.6,4.31-1.35-.35-2.6-.89-4.02-.88-8.14.09-23.04,8.19-31.07,11.36-2.24.89-5.23,2.26-7.67,2.31-1.81.04-4.03-.84-5.66-1.59-4.48-6.76-8.56-15.31-16.16-18.9-3.53-1.67-7.4-2.77-11.03-4.24,5.85.1,13.28,1.52,18.54,4.15,2.7,3.55,8.95,17.97,13.07,18.61,1.17.18,2.37-.31,3.21-1.11.84-.8.95-1.88.85-2.99-.26-2.89-11.42-19.92-13.93-21.65-5.32-3.66-16.24-4.27-22.68-6,6.76-.38,18.56-2.16,23.94,2.73,4.4,4,7.75,17.21,13.99,17.43,2.27-1.19,2.83-3.17,3.75-5.43-5.94-8.82-11.89-21.23-23.44-23.46-3.35-.65-9.11,1.42-10.7.82-.83-1.76.08-4.56.72-6.29.58-1.59,1.62-3,2.58-4.38,3.93.02,8.01-1.08,11.86-1.83l5.1,2.96c.2-.13.39-.26.59-.38,3.85-2.35,8.85-1.69,11.6-5.31.14-1.13.1-1.07-.57-2.01-5.65-2.99-15.71-2.91-21.69-1.07l-.5.16-.15-1.53ZM179.44,104.94c-3.53,7.78-2.79,16.05-4.59,24.27,2.03.82,4.03,1.65,6.15,2.23,4.98-1.6,10.46-3.2,15.56-.81.66.31.7.38,1.19.78l.13.53-.49-.82.31.26c-.69,1.73-1.06,2.06-2.75,2.88-1.95.94-4.39,1.33-6.49,1.79-.12,3.01-.15,6.04-.38,9.04l-6.89.38c-.95.95-1.97,1.58-2.21,2.93,2.63.35,6.27-.47,8.43-2.03.49-.36.61-.48,1.04-.84,4.55.02,8.63.3,13.05,1.48.2,0,.41,0,.61-.02,1.11-.14,1.88-.7,2.8-1.3,2.53-.15,4.98.84,6.89,2.49,1.16,1.01,1.87,1.9,2.24,3.42l-.61.57c-2.5-.42-4.52-2.75-6.84-2.93-2.76-.21-4.37,1.97-7.62,1.44-4.18.13-13.82,2.17-16.97,5.17-.4.39-.42.49-.63.93.26.67.17,1,.92,1.27,4.83,1.72,11.7-2.83,16.79-2.39l.24.68-1.39,1.55.11.51,3.42.55c1.46.08,2.73.04,4.02.84l-.15.75c-2.08,1.24-4.42,2.11-6.39,3.48-1.48,2.54-5.19,3.93-6.95,6.64-.12,1.39-.15,1.4.63,2.55,3.32,1.94,7.14,1.31,10.75.59,10.16-2,14.34-7.91,19.74-15.87,1.57-.73,3.16-1.25,4.82-1.77l.53.37c-.26,1.19-.51,2.39-.74,3.59l.62.62c4.8-1.23,10.37-10.05,13.79-13.77-.97,11.16-5.5,17.06-13.2,24.91.65-.38,1.27-.75,1.88-1.19,7.72-5.54,18.09-14.44,19.32-24.49.25-2.07.32-6.36-1.2-8-.49-.53-1.38-.24-2.05-.21-2.46-2.26-2.47-11.47-2.76-14.92.61.51.68.58,1.39,1.08,1.32.93,3,1.6,4.61,1.04,2.19-.77,3.18-3.23,4.14-5.13.18-1.33.51-4.06-.1-5.23-.57,1-1.03,1.72-1.9,2.47-1-2.23,2.59-7.27,2.08-10.82l-.26.03c-.29-1.62-.85-3.25-1.3-4.85-.74-1.41-.79-1.72-2.17-2.45-1.81.02-3.5.29-5.28.59,1.3-2.97,2.24-6.16,5.57-7.37.61-.22,1.25-.36,1.88-.5v-.86c-1.1-.99-2.19-1.48-3.67-1.37-1.64.12-3.08.96-4.11,2.23-1.86,2.3-5.18,7.45-4.74,10.36.07.42.13.85.21,1.27l-.49.77c-1.35-.38-1.79-1.24-2.5-2.39-3.35-5.44-5.15-11.35-9.43-16.3-.9-1.05-4.49-3.36-4.68-4.39,1.41-.39,2.17-.38,3.11-1.52l-.5-2.5.4-.41c4.28.76,8.11,4.55,12.38,1,.83-.69,1.19-.91,1.26-1.96-1.23-.09-2.2.11-3.4.34-3.51.69-5.86-.21-9.13-1.33,3.31-2.27,7.1-3.89,10.19-6.43-4.63.04-9.14-.27-13.69-1.13,3.18-2.29,10.53-6.05,11.84-9.6-1.33-1.31-2.12-1.45-4.02-1.55-2.42-.12-5.21.53-7.61.9,2.74-1.48,5.37-2.87,7.79-4.86-9.66,1.77-17.15,3.54-26.35-1.38,6.46,1.03,12.73,1.02,18.45-2.64l-.04-.63c-5.09-1.11-17.82,2.48-21.87-2.4-.09-.11-.14-.23-.21-.35,2.25-1.56,5.89.13,8.41-1.17l-.26-.59c-6.16-1.35-11.94-1.08-18.05.38.65-.95,2.82-3.48,2.65-4.47-1.66-.28-3.11.71-4.56,1.41l-.63-.46-.29-2.87c-.91-.44-.53-.47-1.4-.14-1.9.71-2.94,2.76-4.93,3.01-.5-.72-.9-1.38-1.25-2.18-2.02,1.02-2.59,4.48-4.55,4.66-1.14-.49-1.77-.74-2.96-.16-.96.46-1.87,1.16-2.75,1.76l-.08-1.88-.55-.48c-1.82.54-4.92,2.85-5.8,4.61-.29.58-.26.65-.34,1.21,2.49,2.8,7.56-.2,7.49,5.57-2.59,2.49-6.26,3.41-9.2,5.42-7.42,5.06-11.58,17.56-11.7,26.15-.09,6.17.99,12.4,2.16,18.43,10.13-7.31,11.88-2.26,18.54-4.88,2.35.66,5.71,4.96,7.51,6.79ZM251.22,103.48c1.32,1.54,1.63,3.01,2.12,4.95-.53.88-.87,1.54-1.82,2.03-1.08.55-2.35.63-3.47.16-1.62-.68-2.51-1.9-3.04-3.53.15-1.19.11-1.88,1.14-2.68,1.38-1.08,3.42-.92,5.06-.93ZM220.41,191.1c2.12-.69,4.8-5.17,6.52-6.88,5.32-5.31,11.38-9.89,16.58-15.3,2.66-2.78,5.97-6.31,7.77-9.74,1.85-3.53,1.52-7.7.58-11.42-2.2,5.81-4.72,10.52-8.82,15.22-6.53,7.49-19.16,14.85-24.07,21.41-.81,1.08-1.17,1.86-.71,3.21.38,1.14,1.46,2.51,2.16,3.5ZM163.8,134.3c1.26.79,3.04,2.26,4.54,2.16,3.52-3.36,6.69-12.91,6.95-17.7.03-.63,0-1.21-.45-1.7-1.75,2.3-3.5,4.95-5.72,6.82-2.1,1.77-7.49,3.67-8.62,5.73.39,1.93,1.88,3.39,3.29,4.69ZM235.89,200.6l2.49,5.44c1.81-5.11,6.38-15.57,6.93-20.33-4.86,2.8-9.96,5.26-14.77,8.11,2.17,2.01,3.94,4.18,5.36,6.78ZM191.61,201.51c2.09-1.61,3.92-3.24,5.75-5.15-.93,1.71-1.89,3.32-2.95,4.94-.39.6-.26.38-.44,1.2.52-.02,1.11,0,1.62-.09,2.55-.86,5.17-1.64,7.66-2.65-2.08-2.01-4.18-4.42-6.88-5.55-.22-.09-.43-.19-.65-.28-3.43-1.35-7.18-.94-10.68-1.84,1.78,2.98,3.42,6.04,5.8,8.6.16.17.31.35.47.52.1.1.2.2.29.3ZM256.97,214.28c-1.01,3.69-1.6,7.36-1.96,11.17,7.32,2.23,13.65,4.12,17.64,11.27,1.85,3.33,2.89,7.05,3.7,10.75,1.66-1.89,3.24-3.75,4.67-5.83,2.13-3.39,4.5-6.77,6.29-10.34-6.18-2.89-12.51-5.35-18.39-8.84-4.19-2.48-7.88-5.59-11.95-8.18Z"/>
      <path class="cls-2" d="M199.83,114.59c-2.16-.68-4.38-1.33-6.24-2.68-1.27-.93-2.61-2.77-4.2-2.98-1.04-.14-1.73-.36-2.72-.71-2.08-2.17-5.58-5.9-5.53-9.15.02-1.39.44-2.5,1.4-3.5,4.14-4.33,12.71-5.71,18.45-5.55,4.1.11,14.22,1.35,16.71,4.78.56.77,1.01,1.77.68,2.73-.1.27-.27.51-.4.77l.71.54c1,.65,1.6.92,2.16,2.02l-.42.62c-1.26,0-2.51,0-3.78-.06-.53,1.34-.61,2.45-1.91,3.15-5.12-1.21-7.8-9.4-15.59-5.11-1.01.55-1.77,1.09-2.13,2.21,7.99-.45,5.72-3.98,14.69,1.79-4.91,3.16-7.28,5.01-13.25,5.68l.85,1.5c-.25,1.57.02,2.51.5,3.96Z"/>
      <path class="cls-4" d="M218.71,98.82c.9-.53,1.29-.96,2.38-.6,1.35.44,1.64.84,2.33,1.98-.25,1.63-.89,2.68-2.25,3.66-2.36,1.71-9.22.29-9.82,3.66-.18,1.02-.03,2.31,0,3.35l-.3.25-.33-.76c-3.36-.81-7.57.93-11.4.26l-.85-1.5c5.97-.67,8.33-2.53,13.25-5.68-8.96-5.77-6.7-2.24-14.69-1.79.36-1.11,1.12-1.65,2.13-2.21,7.79-4.3,10.48,3.9,15.59,5.11,1.3-.71,1.38-1.82,1.91-3.15,1.26.05,2.51.06,3.78.06l.42-.62c-.56-1.1-1.17-1.37-2.16-2.02Z"/>
      <path class="cls-2" d="M196.64,124.25c3.4.79,7.87,3.19,10.73,5.25,3.61,2.6,5.65,4.87,6.4,9.29-.98-.36-1.93-.77-2.87-1.23-5.71-2.78-12.14-7.11-14.27-13.31Z"/>
      <path class="cls-2" d="M199.34,110.63c3.83.67,8.04-1.07,11.4-.26-2.19,2.49-4.28,3.84-7.66,4.1-.79.06-1.58.06-2.37.09l-.86.04c-.48-1.46-.74-2.4-.5-3.96Z"/>
      <path class="cls-2" d="M253.34,108.43c-.53.88-.87,1.54-1.82,2.03-1.08.55-2.35.63-3.47.16-1.62-.68-2.51-1.9-3.04-3.53.15-1.19.11-1.88,1.14-2.68,1.38-1.08,3.42-.92,5.06-.93,1.32,1.54,1.63,3.01,2.12,4.95Z"/>
      <path class="cls-3" d="M251.22,103.48c.12-.71.27-1.39.43-2.09l1.18.29c.44,1.59,1,3.22,1.3,4.85l-.78,1.9c-.49-1.94-.81-3.41-2.12-4.95Z"/>
      <path class="cls-2" d="M201.5,147.01c.2,0,.41,0,.61-.02,1.11-.14,1.88-.7,2.8-1.3,2.53-.15,4.98.84,6.89,2.49,1.16,1.01,1.87,1.9,2.24,3.42l-.61.57c-2.5-.42-4.52-2.75-6.84-2.93-2.76-.21-4.37,1.97-7.62,1.44l-.9-.77c.26-1.45.41-1.65,1.38-2.77l2.05-.13Z"/>
      <path class="cls-2" d="M254.38,106.5l.86-.93.69.23c.94,2.5.22,5.71.55,8.38-.18,2.11-.54,3.91-1.2,5.92l-.98-.03c.18-1.33.51-4.06-.1-5.23-.57,1-1.03,1.72-1.9,2.47-1-2.23,2.59-7.27,2.08-10.82Z"/>
      <path class="cls-2" d="M201.46,158.95c1.46.08,2.73.04,4.02.84l-.15.75c-2.08,1.24-4.42,2.11-6.39,3.48-.15-1.55-.92-3.35-.14-4.68l2.65-.39Z"/>
      <path class="cls-2" d="M147.57,177.26l1.5,1.12c-3.11,2.3-11.72,11.63-12.33,15.35-.1.63-.11,1.26-.16,1.89-.26,3.39-2.63,7.27-3.87,10.48-2.02,5.23-13.37,33.91-13.29,36.98.06,2.3,1.29,4.41,2.7,6.16,1,1.25,2.15,2.42,3.24,3.58,2.12-3.2,4.05-6.08,7.2-8.38,3.7.7,6.39,1.24,9.73-.95,2.3-1.51,4.67-3.37,5.13-6.26.53-3.36-1.37-7.56-1.75-11.01-1.62-.62-4.83.62-5.6-1.13-.48-1.1-.37-2.35.24-3.39,1.35-2.32,4.8-2.42,5.8-4.52-1.11-2.52-4.36-2.66-5.56-4.85l.68-.6c2.3.82,4.41,3.54,6.7,3.76l.68-.33-2.54-6.43c6.13,1.22,14.09,1.37,18.05,6.85.09.12.16.24.24.36,2.36,2.08,3.7,5.36,5.5,7.92.96,1.38,1.91,2.29,3.62,2.55,1.62-.29,2.48-.96,3.77-1.96l.5-.39c.07.48.13.65,0,1.19-.62,2.84-5.39,12.32-6.84,15.73-3.72,8.78-7.04,17.73-10.5,26.62l-26.29.18c1.09-2.02,2.02-4.14,3.01-6.21-2.77.49-5.49,1.21-8.16-.06-5.09-2.41-8.58-8.29-10.19-13.55-1.89-6.18-.61-10.77,2.34-16.2-4.03,2.22-7.36,4.3-8.81,8.97-2.68,8.64,3.07,19.64,6.89,27.07-16.52.5-33.13-.19-49.68.15,6.39-7.35,17.41-15.71,18.61-25.66.64-5.31.93-10.78,2.81-15.84,6.08-16.39,27.91-22.9,42.24-29.79.25-.7.52-1.39.77-2.09,2.2-6.07,8.56-13.34,13.61-17.35ZM157.63,236.76c4.32-2.53,7.45-5.85,10.86-9.47-1.58-3.05-3.25-6.73-5.85-9.03l-.67-.12-.62.22c-2.04.69-3.52.87-5.64.91-.49.01-.99.04-1.48.06-.2,2.67-1.06,17.34-.07,18.64,1.22-.34,2.32-.67,3.47-1.21Z"/>
      <path class="cls-2" d="M146.06,208.74c6.13,1.22,14.09,1.37,18.05,6.85.09.12.16.24.24.36l-1.22-.07c-1.95-1.61-6.23-5.13-8.79-4.86-2.84.31-4.07,2.06-5.75,4.14l-2.54-6.43Z"/>
      <path class="cls-2" d="M185.91,246.06c1.09.35.86.31,1.39,1.21-1.47,4.69-14.06,15.17-17.69,20.11-1.74-.12-3.57.09-5.32.19,2.56-6.96,5.26-13.87,8.09-20.73l3.93,3.85c3.15-1.71,6.26-3.3,9.59-4.64Z"/>
      <path class="cls-2" d="M147.57,177.26c2.07-2.02,3.67-4.41,5.48-6.65,3.56-4.42,8.55-5.58,13.68-7.3l.15,1.53c-6.53,1.99-10.11,2.76-14,8.79-1.16,1.8-2.17,3.33-3.81,4.76l-1.5-1.12Z"/>
    </g>
  </g>
</svg>